<svg xmlns="http://www.w3.org/2000/svg" xmlns:xlink="http://www.w3.org/1999/xlink" viewBox="0 0 3389 1902"><defs><style>.cls-1{stroke-miterlimit:10;fill:url(#linear-gradient);stroke:url(#linear-gradient-2);}</style><linearGradient id="linear-gradient" x1="0.5" y1="951" x2="3388.5" y2="951" gradientUnits="userSpaceOnUse"><stop offset="0" stop-color="#a67c52"/><stop offset="1" stop-color="#c1272d"/></linearGradient><linearGradient id="linear-gradient-2" y1="951" x2="3389" y2="951" gradientUnits="userSpaceOnUse"><stop offset="0" stop-color="#a67c52"/><stop offset="0.47" stop-color="#a77a51"/><stop offset="0.64" stop-color="#a9734e"/><stop offset="0.76" stop-color="#ac6849"/><stop offset="0.85" stop-color="#b25742"/><stop offset="0.94" stop-color="#b94138"/><stop offset="1" stop-color="#c02a2e"/><stop offset="1" stop-color="#c1272d"/></linearGradient></defs><g id="Layer_2" data-name="Layer 2"><g id="Layer_1-2" data-name="Layer 1"><path class="cls-1" d="M1826.67,1266.27a66.57,66.57,0,0,0-15.11-22.87q-10.17-10.19-27.57-16t-40.35-5.81h-46.89v144.82h46.89q23,0,40.35-5.69t27.57-15.9a66,66,0,0,0,15.11-22.95,76.82,76.82,0,0,0,4.92-27.87A75.87,75.87,0,0,0,1826.67,1266.27Zm0,0a66.57,66.57,0,0,0-15.11-22.87q-10.17-10.19-27.57-16t-40.35-5.81h-46.89v144.82h46.89q23,0,40.35-5.69t27.57-15.9a66,66,0,0,0,15.11-22.95,76.82,76.82,0,0,0,4.92-27.87A75.87,75.87,0,0,0,1826.67,1266.27ZM.5.5v1901h3388V.5ZM2189.06,503.89h123.23C2185.9,528.38,2116.55,637.28,2093.53,691c-38.32,89.47-81.63,155.94-121.23,204.3C1911.77,969.23,1836.83,1009,1759.77,1009h-41.91S1890.2,896.1,1915.74,676.91C1933.36,525.62,2108.61,503.89,2189.06,503.89Zm-542.91-42.64c37.2-40.15,63.93-92,75.42-150.32l1-4.93c11.57,57.62,37.58,109.12,73.77,149.7s82.53,70.24,134.79,84.18l6.05,1.62c-105.71,23.12-189.14,112.28-213,227.62l-1.62,7.87-.91-4.07c-25.72-115.22-108.37-204.72-213.7-231.42C1561.29,529.86,1609,501.4,1646.15,461.25Zm-405.43,42.64c80.45,0,255.7,21.73,273.32,173C1539.58,896.1,1711.92,1009,1711.92,1009H1670c-77.06,0-152-39.81-212.53-113.74-39.6-48.36-82.91-114.83-121.24-204.3-23-53.72-92.36-162.62-218.76-187.11ZM1086,585.62c78.47,0,150.73,55.28,191.44,144.65C1355.07,900.71,1545.62,1009,1545.62,1009h-40.88c-75.17,0-148.28-33.37-207.32-95.34-38.62-40.53-80.87-96.25-118.25-171.24-22.45-45-90.1-136.32-213.39-156.84Zm-29.16,736.46c2.05-.75,38.75-14.71,30.14-42.65l-13.77-43.17h0c-3.18-9-9.17-10.4-9.17-10.4h0c-26.25-.5-21.38,19.33-10.83,17.52,12.31-2.11-.41-10.53-.41-10.53s13.24-2.89,13.86,6.87c.47,7.19-7.22,13.24-15.3,13.25h0c-20.85.33-19.06-17.52-17.26-25.43h0c.32-1.41.64-2.49.84-3.12l.19-.56a18.45,18.45,0,0,1,8.39-8.9c6.92-3.9,16.07-5,22.06-5.29H1162s-54.79,2.63-49.69,28.25l9.15,28.65a.23.23,0,0,0,0,.07c.25,1.39,4,24.3-25.29,41.54C1086.8,1313.69,1074.1,1318.64,1056.83,1322.08Zm254.31,169h-.22q-6,0-7.63-5.52l-68.44-213.67-66.62,213.49c-1.21,3.79-3.76,5.7-7.65,5.7h-.19q-6,0-7.66-5.52l-46.55-145.88h0c.11-.72,3.09-19.87,27.22-35.54a100,100,0,0,1,19.55-9.74c-.93.66-18,13.07-12.42,32.06.11.38.24.77.36,1.15l32.57,102,66.62-214.08a8,8,0,0,1,3.12-4.21,8.32,8.32,0,0,1,4.94-1.66q6,0,7.85,5.87l68.22,214.08,59.52-191.5,0-.2,0-.1c0-.09.07-.23.12-.45,1-3.87,4.84-26.73-42.18-27.7H1444.5s-.58.07-1.61.23c-24.79,4.14-45.16,22.38-52.79,46.93L1319,1485.34C1317.77,1489.13,1315.15,1491,1311.14,1491Zm542,3.91c-5.37,0-10.47-2.08-15.31-6.28a63.23,63.23,0,0,1-13.07-16.38q-5.87-10.11-11.58-22.37T1801,1425.29a212,212,0,0,0-13.59-22.67,65,65,0,0,0-17.19-17.06,40.48,40.48,0,0,0-21.55-7.16,9.74,9.74,0,0,1-1.41-.11c-.53,0-1-.09-1.41-.09h-49.1v93q0,15.3,8.65,17.46c.68.26,1,.66,1,1.18a1.06,1.06,0,0,1-1.2,1.19H1562.5c-.66,0-1-.41-1-1.19a1.06,1.06,0,0,1,.8-1.18q11.27-2.75,4-25.9L1540,1380.16h-95.21L1419,1462.77q-7.26,23.14,4.23,25.9a1.06,1.06,0,0,1,.8,1.18,1.07,1.07,0,0,1-1.22,1.19h-33.4a1.07,1.07,0,0,1-1.21-1.19c0-.52.33-.92,1-1.18q10.24-2.55,14.89-17.46v.2l75.27-241.94q5-15.69-2.62-17.47a1,1,0,0,1-.8-1.17c0-.79.41-1.17,1.21-1.17h45.29a2.56,2.56,0,0,1,2.4,1.75l24.73,77.47a39.28,39.28,0,0,0,3.76,11.75c12.16,23.87,45.25,21.48,45.25,21.48-13.4,7.45-25.22,9.83-35.51,9-34-2.56-51.19-39.75-52.26-42.15l-.06-.12-19.12-59.8-43.27,139.11h87.76L1519,1316.67c.58.68,20.31,23.74,45.49,21l40.11,123.58a39.87,39.87,0,0,0,18.62,23.16c7,3.77,15.61,5.45,24-.52,6.87-4.9,10.7-13.2,10.7-21.8V1229.47q0-15.3-8.65-17.47c-.68-.26-1-.64-1-1.17,0-.79.41-1.17,1.21-1.17h108.89q24.35,0,43.87,5.09t32,13.34a83.1,83.1,0,0,1,20.83,19.34,71.48,71.48,0,0,1,11.78,22.66,84,84,0,0,1,3.42,23.93q0,32-21.55,52.29t-57.14,27.77a30.72,30.72,0,0,1,9,3.54c3,1.7,5.6,3.33,8,4.9a39.11,39.11,0,0,1,7.75,7.36q4.23,5,6.64,7.84a84,84,0,0,1,6.55,9.72c2.74,4.58,4.58,7.73,5.52,9.41s2.82,5.2,5.64,10.51,4.5,8.46,5,9.52q6.63,13.13,10.17,19s0,0,0,.06a19.34,19.34,0,0,0,10,8.25c35,12.62,50.52-50.56,50.52-50.56C1920,1499.7,1853.14,1495,1853.14,1495Zm336.44-86.47a124.83,124.83,0,0,1-28.17,44.35q-18.72,19-48.6,29.53t-68.74,10.51h-69.44a1.07,1.07,0,0,1-1.21-1.19c0-.52.34-.92,1-1.18q8.64-2.16,8.65-17.46v-72.5s-5.74-57.78-66.51-57.12c0,0,36.49-9.6,66.51.64,21,7.14,38.85,24,38.85,60.54v76.29h22.13q53.94,0,85.24-33t31.28-95.75q0-62.78-31.28-95.75t-85.24-33h-22.13v73a28.6,28.6,0,0,0,0,8.37c4.24,29.18,54.38,34.56,54.38,34.56-23.53,2.27-41.17,1.12-54.38-2-31.16-7.41-37.71-25.85-38.85-36.1v-27.33s-4.6-62.36-74.47-62.36h135.45q38.85,0,68.74,10.49t48.6,29.53a124.79,124.79,0,0,1,28.17,44.34q9.47,25.32,9.66,56.32Q2199,1383.17,2189.58,1408.48Zm250,84.39h-60c-.68,0-1-.41-1-1.19a1.06,1.06,0,0,1,.8-1.18q11.27-2.74,4-25.9L2357,1382h-95.21l-25.76,82.61q-7.25,23.14,4.23,25.9a1.22,1.22,0,0,1-.41,2.37h-33.41a1.05,1.05,0,0,1-1.19-1.19c0-.52.32-.92,1-1.18q10.27-2.55,14.89-17.46v.2l50.16-162.19a.1.1,0,0,1,0,0c.45-.8,3.59-14.54,16.91-15.23a29,29,0,0,1,9.87.69s-8-.23-13,9.43L2265.45,1370h87.75l-44.46-139.11-13.54,44.63a20.24,20.24,0,0,1-3.9,7.29,18.12,18.12,0,0,1-12.54,6.43,40.76,40.76,0,0,1-7.39,0l.45,0a10.84,10.84,0,0,0,9.36-7.71l15.27-50.17q5-15.69-2.62-17.47a1,1,0,0,1-.81-1.17c0-.79.41-1.17,1.22-1.17h45.28a2.57,2.57,0,0,1,2.41,1.75l82.92,259.8q4.84,14.91,15.11,17.46a1.22,1.22,0,0,1-.41,2.37ZM2250.61,742.46c-37.38,75-79.63,130.71-118.25,171.24-59.05,62-132.15,95.34-207.32,95.34h-40.88s190.55-108.33,268.19-278.77c40.71-89.37,113-144.65,191.44-144.65H2464C2340.71,606.14,2273.06,697.43,2250.61,742.46Zm-423.94,579.43a76.82,76.82,0,0,0,4.92-27.87,75.87,75.87,0,0,0-4.92-27.75,66.57,66.57,0,0,0-15.11-22.87q-10.17-10.19-27.57-16t-40.35-5.81h-46.89v144.82h46.89q23,0,40.35-5.69t27.57-15.9A66,66,0,0,0,1826.67,1321.89Zm0-55.62a66.57,66.57,0,0,0-15.11-22.87q-10.17-10.19-27.57-16t-40.35-5.81h-46.89v144.82h46.89q23,0,40.35-5.69t27.57-15.9a66,66,0,0,0,15.11-22.95,76.82,76.82,0,0,0,4.92-27.87A75.87,75.87,0,0,0,1826.67,1266.27Zm0,0a66.57,66.57,0,0,0-15.11-22.87q-10.17-10.19-27.57-16t-40.35-5.81h-46.89v144.82h46.89q23,0,40.35-5.69t27.57-15.9a66,66,0,0,0,15.11-22.95,76.82,76.82,0,0,0,4.92-27.87A75.87,75.87,0,0,0,1826.67,1266.27Z"/></g></g></svg>